<?xml version="1.0" encoding="UTF-8"?>
<!DOCTYPE svg PUBLIC "-//W3C//DTD SVG 1.1//EN" "http://www.w3.org/Graphics/SVG/1.1/DTD/svg11.dtd">
<svg version="1.2" viewBox="0 0 28000 15750" preserveAspectRatio="xMidYMid" fill-rule="evenodd" stroke-width="28.222" stroke-linejoin="round" xmlns="http://www.w3.org/2000/svg" xmlns:ooo="http://xml.openoffice.org/svg/export" xmlns:xlink="http://www.w3.org/1999/xlink" xmlns:presentation="http://sun.com/xmlns/staroffice/presentation" xmlns:smil="http://www.w3.org/2001/SMIL20/" xmlns:anim="urn:oasis:names:tc:opendocument:xmlns:animation:1.0" xml:space="preserve">
 <defs class="ClipPathGroup">
  <clipPath id="presentation_clip_path" clipPathUnits="userSpaceOnUse">
   <rect x="0" y="0" width="28000" height="15750"/>
  </clipPath>
  <clipPath id="presentation_clip_path_shrink" clipPathUnits="userSpaceOnUse">
   <rect x="28" y="15" width="27944" height="15719"/>
  </clipPath>
 </defs>
 <defs class="TextShapeIndex">
  <g ooo:slide="id1" ooo:id-list="id3 id4 id5 id6 id7 id8 id9 id10 id11 id12 id13 id14 id15 id16 id17 id18"/>
 </defs>
 <defs class="EmbeddedBulletChars">
  <g id="bullet-char-template-57356" transform="scale(0.00048828125,-0.00048828125)">
   <path d="M 580,1141 L 1163,571 580,0 -4,571 580,1141 Z"/>
  </g>
  <g id="bullet-char-template-57354" transform="scale(0.00048828125,-0.00048828125)">
   <path d="M 8,1128 L 1137,1128 1137,0 8,0 8,1128 Z"/>
  </g>
  <g id="bullet-char-template-10146" transform="scale(0.00048828125,-0.00048828125)">
   <path d="M 174,0 L 602,739 174,1481 1456,739 174,0 Z M 1358,739 L 309,1346 659,739 1358,739 Z"/>
  </g>
  <g id="bullet-char-template-10132" transform="scale(0.00048828125,-0.00048828125)">
   <path d="M 2015,739 L 1276,0 717,0 1260,543 174,543 174,936 1260,936 717,1481 1274,1481 2015,739 Z"/>
  </g>
  <g id="bullet-char-template-10007" transform="scale(0.00048828125,-0.00048828125)">
   <path d="M 0,-2 C -7,14 -16,27 -25,37 L 356,567 C 262,823 215,952 215,954 215,979 228,992 255,992 264,992 276,990 289,987 310,991 331,999 354,1012 L 381,999 492,748 772,1049 836,1024 860,1049 C 881,1039 901,1025 922,1006 886,937 835,863 770,784 769,783 710,716 594,584 L 774,223 C 774,196 753,168 711,139 L 727,119 C 717,90 699,76 672,76 641,76 570,178 457,381 L 164,-76 C 142,-110 111,-127 72,-127 30,-127 9,-110 8,-76 1,-67 -2,-52 -2,-32 -2,-23 -1,-13 0,-2 Z"/>
  </g>
  <g id="bullet-char-template-10004" transform="scale(0.00048828125,-0.00048828125)">
   <path d="M 285,-33 C 182,-33 111,30 74,156 52,228 41,333 41,471 41,549 55,616 82,672 116,743 169,778 240,778 293,778 328,747 346,684 L 369,508 C 377,444 397,411 428,410 L 1163,1116 C 1174,1127 1196,1133 1229,1133 1271,1133 1292,1118 1292,1087 L 1292,965 C 1292,929 1282,901 1262,881 L 442,47 C 390,-6 338,-33 285,-33 Z"/>
  </g>
  <g id="bullet-char-template-9679" transform="scale(0.00048828125,-0.00048828125)">
   <path d="M 813,0 C 632,0 489,54 383,161 276,268 223,411 223,592 223,773 276,916 383,1023 489,1130 632,1184 813,1184 992,1184 1136,1130 1245,1023 1353,916 1407,772 1407,592 1407,412 1353,268 1245,161 1136,54 992,0 813,0 Z"/>
  </g>
  <g id="bullet-char-template-8226" transform="scale(0.00048828125,-0.00048828125)">
   <path d="M 346,457 C 273,457 209,483 155,535 101,586 74,649 74,723 74,796 101,859 155,911 209,963 273,989 346,989 419,989 480,963 531,910 582,859 608,796 608,723 608,648 583,586 532,535 482,483 420,457 346,457 Z"/>
  </g>
  <g id="bullet-char-template-8211" transform="scale(0.00048828125,-0.00048828125)">
   <path d="M -4,459 L 1135,459 1135,606 -4,606 -4,459 Z"/>
  </g>
  <g id="bullet-char-template-61548" transform="scale(0.00048828125,-0.00048828125)">
   <path d="M 173,740 C 173,903 231,1043 346,1159 462,1274 601,1332 765,1332 928,1332 1067,1274 1183,1159 1299,1043 1357,903 1357,740 1357,577 1299,437 1183,322 1067,206 928,148 765,148 601,148 462,206 346,322 231,437 173,577 173,740 Z"/>
  </g>
 </defs>
 <g>
  <g id="id2" class="Master_Slide">
   <g id="bg-id2" class="Background"/>
   <g id="bo-id2" class="BackgroundObjects"/>
  </g>
 </g>
 <g class="SlideGroup">
  <g>
   <g id="container-id1">
    <g id="id1" class="Slide" clip-path="url(#presentation_clip_path)">
     <g class="Page">
      <g class="Group">
       <g class="com.sun.star.drawing.ClosedBezierShape">
        <g id="id3">
         <rect class="BoundingBox" stroke="none" fill="none" x="4162" y="7253" width="962" height="1199"/>
         <path fill="rgb(0,0,0)" stroke="none" d="M 4638,8450 C 4556,8450 4485,8438 4425,8415 4365,8392 4316,8360 4277,8319 4238,8278 4209,8229 4190,8172 4172,8115 4163,8052 4163,7983 L 4163,7254 4427,7254 4427,7961 C 4427,8008 4432,8049 4443,8082 4453,8115 4468,8142 4487,8163 4505,8184 4528,8199 4554,8208 4581,8217 4610,8222 4642,8222 4706,8222 4758,8202 4798,8162 4838,8123 4858,8056 4858,7961 L 4858,7254 5122,7254 5122,7983 C 5122,8052 5113,8115 5094,8172 5074,8230 5045,8279 5006,8321 4966,8362 4916,8394 4855,8416 4794,8439 4722,8450 4638,8450 Z"/>
        </g>
       </g>
       <g class="com.sun.star.drawing.ClosedBezierShape">
        <g id="id4">
         <rect class="BoundingBox" stroke="none" fill="none" x="5377" y="7240" width="928" height="1203"/>
         <path fill="rgb(0,0,0)" stroke="none" d="M 5769,8441 C 5704,8441 5640,8439 5576,8435 5513,8432 5446,8422 5377,8408 L 5377,7270 C 5432,7260 5491,7253 5555,7248 5620,7243 5679,7240 5735,7240 5809,7240 5878,7245 5940,7256 6003,7267 6057,7285 6102,7311 6147,7337 6182,7371 6208,7413 6233,7456 6246,7508 6246,7570 6246,7663 6201,7737 6111,7791 6185,7820 6236,7858 6263,7907 6290,7955 6304,8010 6304,8071 6304,8194 6259,8286 6169,8348 6079,8410 5946,8441 5769,8441 Z M 5635,7915 L 5635,8218 C 5654,8220 5675,8222 5697,8223 5720,8224 5745,8225 5772,8225 5851,8225 5915,8213 5963,8191 6012,8168 6036,8127 6036,8066 6036,8011 6016,7973 5975,7950 5934,7927 5876,7915 5801,7915 L 5635,7915 Z M 5635,7714 L 5763,7714 C 5845,7714 5903,7703 5938,7683 5973,7662 5990,7628 5990,7583 5990,7536 5972,7503 5936,7484 5900,7464 5847,7455 5777,7455 5754,7455 5730,7455 5704,7455 5678,7455 5655,7456 5635,7458 L 5635,7714 Z"/>
        </g>
       </g>
       <g class="com.sun.star.drawing.ClosedBezierShape">
        <g id="id5">
         <rect class="BoundingBox" stroke="none" fill="none" x="6499" y="7253" width="962" height="1199"/>
         <path fill="rgb(0,0,0)" stroke="none" d="M 6975,8450 C 6893,8450 6822,8438 6762,8415 6702,8392 6653,8360 6614,8319 6575,8278 6546,8229 6527,8172 6509,8115 6500,8052 6500,7983 L 6500,7254 6764,7254 6764,7961 C 6764,8008 6769,8049 6780,8082 6790,8115 6805,8142 6824,8163 6842,8184 6865,8199 6891,8208 6918,8217 6947,8222 6979,8222 7043,8222 7095,8202 7135,8162 7175,8123 7195,8056 7195,7961 L 7195,7254 7459,7254 7459,7983 C 7459,8052 7450,8115 7431,8172 7411,8230 7382,8279 7343,8321 7303,8362 7253,8394 7192,8416 7131,8439 7059,8450 6975,8450 Z"/>
        </g>
       </g>
       <g class="com.sun.star.drawing.ClosedBezierShape">
        <g id="id6">
         <rect class="BoundingBox" stroke="none" fill="none" x="7714" y="7253" width="1011" height="1174"/>
         <path fill="rgb(0,0,0)" stroke="none" d="M 8502,8426 C 8426,8292 8344,8159 8256,8028 8168,7897 8074,7774 7975,7658 L 7975,8426 7714,8426 7714,7253 7929,7253 C 7967,7290 8008,7336 8053,7390 8098,7444 8144,7502 8191,7564 8238,7625 8284,7689 8331,7755 8377,7821 8420,7884 8461,7945 L 8461,7253 8723,7253 8723,8426 8502,8426 Z"/>
        </g>
       </g>
       <g class="com.sun.star.drawing.ClosedBezierShape">
        <g id="id7">
         <rect class="BoundingBox" stroke="none" fill="none" x="8890" y="7252" width="974" height="1176"/>
         <path fill="rgb(0,0,0)" stroke="none" d="M 9863,7253 C 9863,7328 9863,7403 9863,7478 9745,7478 9627,7478 9509,7478 9509,7794 9509,8110 9509,8426 9421,8426 9333,8426 9245,8426 9245,8110 9245,7794 9245,7478 9127,7478 9009,7478 8891,7478 8891,7403 8891,7328 8891,7253 9215,7253 9539,7253 9863,7253 Z"/>
        </g>
       </g>
       <g class="com.sun.star.drawing.ClosedBezierShape">
        <g id="id8">
         <rect class="BoundingBox" stroke="none" fill="none" x="10017" y="7253" width="962" height="1199"/>
         <path fill="rgb(0,0,0)" stroke="none" d="M 10493,8450 C 10411,8450 10340,8438 10280,8415 10220,8392 10171,8360 10132,8319 10093,8278 10064,8229 10045,8172 10027,8115 10018,8052 10018,7983 L 10018,7254 10282,7254 10282,7961 C 10282,8008 10287,8049 10298,8082 10308,8115 10323,8142 10342,8163 10360,8184 10383,8199 10409,8208 10436,8217 10465,8222 10497,8222 10561,8222 10613,8202 10653,8162 10693,8123 10713,8056 10713,7961 L 10713,7254 10977,7254 10977,7983 C 10977,8052 10968,8115 10949,8172 10929,8230 10900,8279 10861,8321 10821,8362 10771,8394 10710,8416 10649,8439 10577,8450 10493,8450 Z"/>
        </g>
       </g>
      </g>
      <g class="Group">
       <g class="com.sun.star.drawing.ClosedBezierShape">
        <g id="id9">
         <rect class="BoundingBox" stroke="none" fill="none" x="15654" y="7239" width="1030" height="1203"/>
         <path fill="rgb(0,0,0)" stroke="none" d="M 15919,8211 C 15931,8213 15945,8214 15962,8214 15978,8214 15998,8214 16020,8214 16152,8214 16250,8181 16314,8114 16378,8048 16410,7956 16410,7839 16410,7716 16379,7624 16318,7561 16257,7498 16161,7466 16029,7466 16011,7466 15992,7466 15973,7466 15954,7466 15935,7467 15919,7469 L 15919,8211 Z M 16682,7838 C 16682,7940 16666,8028 16635,8104 16603,8180 16558,8242 16500,8292 16442,8342 16371,8379 16288,8404 16204,8428 16110,8441 16007,8441 15959,8441 15904,8439 15841,8435 15777,8431 15715,8423 15654,8410 L 15654,7268 C 15715,7257 15779,7249 15845,7245 15911,7241 15968,7239 16015,7239 16116,7239 16207,7250 16288,7273 16370,7296 16441,7331 16499,7380 16558,7428 16603,7490 16635,7566 16666,7641 16682,7732 16682,7838 Z"/>
        </g>
       </g>
       <g class="com.sun.star.drawing.ClosedBezierShape">
        <g id="id10">
         <rect class="BoundingBox" stroke="none" fill="none" x="16852" y="7226" width="1170" height="1225"/>
         <path fill="rgb(0,0,0)" stroke="none" d="M 17125,7839 C 17125,7896 17132,7948 17146,7995 17160,8041 17181,8081 17207,8114 17234,8147 17266,8173 17305,8191 17343,8209 17387,8218 17437,8218 17485,8218 17529,8209 17568,8191 17607,8173 17640,8147 17666,8114 17693,8081 17713,8041 17727,7995 17741,7948 17748,7896 17748,7839 17748,7781 17741,7729 17727,7682 17713,7635 17693,7595 17666,7562 17640,7529 17607,7503 17568,7485 17529,7467 17485,7458 17437,7458 17387,7458 17343,7467 17305,7486 17266,7505 17234,7531 17207,7564 17181,7597 17160,7637 17146,7684 17132,7731 17125,7782 17125,7839 Z M 18021,7839 C 18021,7939 18006,8028 17976,8104 17946,8180 17905,8244 17853,8295 17801,8346 17740,8385 17668,8411 17596,8437 17519,8450 17437,8450 17357,8450 17281,8437 17210,8411 17139,8385 17077,8346 17024,8295 16971,8244 16929,8180 16898,8104 16868,8028 16853,7939 16853,7839 16853,7738 16868,7650 16900,7574 16932,7498 16974,7434 17028,7382 17081,7330 17144,7291 17214,7265 17285,7239 17359,7226 17437,7226 17517,7226 17592,7239 17664,7265 17735,7291 17797,7330 17850,7382 17903,7434 17945,7498 17975,7574 18006,7650 18021,7738 18021,7839 Z"/>
        </g>
       </g>
       <g class="com.sun.star.drawing.ClosedBezierShape">
        <g id="id11">
         <rect class="BoundingBox" stroke="none" fill="none" x="18100" y="7252" width="974" height="1176"/>
         <path fill="rgb(0,0,0)" stroke="none" d="M 19073,7253 C 19073,7328 19073,7403 19073,7478 18955,7478 18837,7478 18719,7478 18719,7794 18719,8110 18719,8426 18631,8426 18543,8426 18455,8426 18455,8110 18455,7794 18455,7478 18337,7478 18219,7478 18101,7478 18101,7403 18101,7328 18101,7253 18425,7253 18749,7253 19073,7253 Z"/>
        </g>
       </g>
       <g class="com.sun.star.drawing.ClosedBezierShape">
        <g id="id12">
         <rect class="BoundingBox" stroke="none" fill="none" x="19244" y="7253" width="787" height="1174"/>
         <path fill="rgb(0,0,0)" stroke="none" d="M 19244,8426 C 19244,8035 19244,7644 19244,7253 19506,7253 19768,7253 20030,7253 20030,7327 20030,7401 20030,7475 19856,7475 19682,7475 19509,7475 19509,7557 19509,7638 19509,7720 19663,7720 19818,7720 19972,7720 19972,7794 19972,7868 19972,7942 19818,7942 19663,7942 19509,7942 19509,8103 19509,8265 19509,8426 19421,8426 19332,8426 19244,8426 Z"/>
        </g>
       </g>
       <g class="com.sun.star.drawing.ClosedBezierShape">
        <g id="id13">
         <rect class="BoundingBox" stroke="none" fill="none" x="20218" y="7253" width="266" height="1174"/>
         <path fill="rgb(0,0,0)" stroke="none" d="M 20218,7253 C 20306,7253 20395,7253 20483,7253 20483,7644 20483,8035 20483,8426 20395,8426 20306,8426 20218,8426 20218,8035 20218,7644 20218,7253 Z"/>
        </g>
       </g>
       <g class="com.sun.star.drawing.ClosedBezierShape">
        <g id="id14">
         <rect class="BoundingBox" stroke="none" fill="none" x="20751" y="7253" width="786" height="1174"/>
         <path fill="rgb(0,0,0)" stroke="none" d="M 21535,8199 C 21535,8275 21535,8350 21535,8426 21274,8426 21013,8426 20751,8426 20751,8035 20751,7644 20751,7253 20839,7253 20928,7253 21016,7253 21016,7568 21016,7884 21016,8199 21189,8199 21362,8199 21535,8199 Z"/>
        </g>
       </g>
       <g class="com.sun.star.drawing.ClosedBezierShape">
        <g id="id15">
         <rect class="BoundingBox" stroke="none" fill="none" x="21703" y="7253" width="833" height="1174"/>
         <path fill="rgb(0,0,0)" stroke="none" d="M 21703,8426 C 21703,8035 21703,7644 21703,7253 21968,7253 22232,7253 22496,7253 22496,7327 22496,7401 22496,7475 22320,7475 22144,7475 21968,7475 21968,7551 21968,7628 21968,7705 22124,7705 22280,7705 22437,7705 22437,7777 22437,7849 22437,7922 22280,7922 22124,7922 21968,7922 21968,8016 21968,8110 21968,8204 22157,8204 22346,8204 22535,8204 22535,8278 22535,8352 22535,8426 22258,8426 21981,8426 21703,8426 Z"/>
        </g>
       </g>
       <g class="com.sun.star.drawing.ClosedBezierShape">
        <g id="id16">
         <rect class="BoundingBox" stroke="none" fill="none" x="22655" y="7226" width="857" height="1225"/>
         <path fill="rgb(0,0,0)" stroke="none" d="M 23048,8225 C 23086,8225 23116,8222 23141,8216 23165,8209 23184,8201 23199,8190 23214,8179 23224,8167 23230,8152 23235,8137 23238,8121 23238,8103 23238,8065 23220,8033 23184,8007 23148,7982 23086,7955 22998,7925 22959,7912 22921,7896 22883,7879 22844,7861 22810,7839 22779,7813 22749,7786 22724,7754 22705,7716 22686,7678 22676,7632 22676,7578 22676,7524 22686,7475 22706,7432 22727,7388 22756,7351 22793,7321 22830,7290 22875,7267 22928,7251 22981,7234 23041,7226 23108,7226 23187,7226 23255,7234 23313,7251 23370,7268 23417,7287 23455,7307 L 23379,7515 C 23346,7499 23309,7484 23269,7471 23229,7458 23181,7451 23125,7451 23061,7451 23016,7460 22988,7477 22961,7495 22947,7522 22947,7558 22947,7579 22952,7597 22962,7612 22972,7627 22987,7640 23005,7652 23024,7664 23045,7674 23070,7684 23094,7694 23121,7703 23150,7714 23211,7736 23264,7758 23309,7780 23354,7802 23392,7828 23422,7857 23452,7887 23474,7921 23489,7961 23503,8000 23511,8048 23511,8105 23511,8214 23472,8299 23395,8359 23319,8420 23203,8450 23048,8450 22996,8450 22950,8447 22908,8441 22866,8434 22829,8427 22797,8418 22765,8409 22737,8399 22714,8389 22691,8379 22671,8369 22656,8360 L 22730,8150 C 22765,8170 22808,8187 22860,8202 22911,8217 22974,8225 23048,8225 Z"/>
        </g>
       </g>
      </g>
      <g class="Group">
       <g class="com.sun.star.drawing.ClosedBezierShape">
        <g id="id17">
         <rect class="BoundingBox" stroke="none" fill="none" x="11627" y="6013" width="3459" height="3459"/>
         <path fill="rgb(221,72,20)" stroke="none" d="M 15084,7742 C 15084,8696 14310,9470 13357,9470 12402,9470 11628,8696 11628,7742 11628,6788 12402,6014 13357,6014 14310,6014 15084,6788 15084,7742 Z"/>
        </g>
       </g>
       <g class="com.sun.star.drawing.ClosedBezierShape">
        <g id="id18">
         <rect class="BoundingBox" stroke="none" fill="none" x="11950" y="6493" width="2408" height="2499"/>
         <path fill="rgb(255,255,255)" stroke="none" d="M 12182,7511 C 12054,7511 11951,7615 11951,7742 11951,7869 12054,7972 12182,7972 12309,7972 12412,7869 12412,7742 12412,7615 12309,7511 12182,7511 Z M 13828,8559 C 13718,8623 13680,8764 13744,8874 13807,8985 13949,9023 14059,8959 14169,8895 14207,8754 14143,8644 14080,8533 13939,8496 13828,8559 Z M 12683,7742 C 12683,7514 12796,7313 12969,7191 12913,7096 12857,7002 12801,6908 12599,7043 12449,7249 12386,7491 12459,7550 12506,7641 12506,7742 12506,7843 12459,7933 12386,7993 12449,8234 12599,8440 12801,8575 12857,8481 12913,8387 12969,8293 12796,8171 12683,7969 12683,7742 Z M 13357,7068 C 13708,7068 13997,7338 14027,7682 14137,7680 14247,7679 14356,7678 14340,7423 14229,7195 14058,7027 13970,7061 13869,7055 13782,7005 13694,6954 13639,6869 13624,6776 13538,6753 13449,6740 13357,6740 13197,6740 13047,6777 12913,6843 12966,6939 13019,7035 13073,7131 13159,7091 13255,7068 13357,7068 Z M 13357,8415 C 13255,8415 13159,8393 13073,8353 13019,8449 12966,8545 12913,8640 13047,8706 13197,8744 13357,8744 13449,8744 13538,8731 13624,8707 13639,8614 13694,8529 13782,8478 13869,8428 13970,8423 14058,8456 14229,8288 14340,8060 14356,7806 14247,7805 14137,7803 14027,7801 13997,8145 13708,8415 13357,8415 Z M 13828,6924 C 13939,6988 14080,6950 14143,6840 14207,6729 14169,6588 14059,6524 13949,6461 13807,6499 13744,6609 13680,6719 13718,6860 13828,6924 Z"/>
        </g>
       </g>
      </g>
     </g>
    </g>
   </g>
  </g>
 </g>
</svg>