<?xml version="1.0" encoding="UTF-8"?>
<!DOCTYPE svg PUBLIC "-//W3C//DTD SVG 1.1//EN" "http://www.w3.org/Graphics/SVG/1.1/DTD/svg11.dtd">
<svg version="1.2" width="304.8mm" height="76.2mm" viewBox="0 0 30480 7620" preserveAspectRatio="xMidYMid" fill-rule="evenodd" stroke-width="28.222" stroke-linejoin="round" xmlns="http://www.w3.org/2000/svg" xmlns:ooo="http://xml.openoffice.org/svg/export" xmlns:xlink="http://www.w3.org/1999/xlink" xmlns:presentation="http://sun.com/xmlns/staroffice/presentation" xmlns:smil="http://www.w3.org/2001/SMIL20/" xmlns:anim="urn:oasis:names:tc:opendocument:xmlns:animation:1.0" xml:space="preserve">
 <defs class="ClipPathGroup">
  <clipPath id="presentation_clip_path" clipPathUnits="userSpaceOnUse">
   <rect x="0" y="0" width="30480" height="7620"/>
  </clipPath>
  <clipPath id="presentation_clip_path_shrink" clipPathUnits="userSpaceOnUse">
   <rect x="30" y="7" width="30420" height="7605"/>
  </clipPath>
 </defs>
 <defs class="TextShapeIndex">
  <g ooo:slide="id1" ooo:id-list="id3 id4 id5 id6 id7 id8 id9 id10 id11 id12 id13 id14 id15 id16 id17 id18"/>
 </defs>
 <defs class="EmbeddedBulletChars">
  <g id="bullet-char-template-57356" transform="scale(0.00048828125,-0.00048828125)">
   <path d="M 580,1141 L 1163,571 580,0 -4,571 580,1141 Z"/>
  </g>
  <g id="bullet-char-template-57354" transform="scale(0.00048828125,-0.00048828125)">
   <path d="M 8,1128 L 1137,1128 1137,0 8,0 8,1128 Z"/>
  </g>
  <g id="bullet-char-template-10146" transform="scale(0.00048828125,-0.00048828125)">
   <path d="M 174,0 L 602,739 174,1481 1456,739 174,0 Z M 1358,739 L 309,1346 659,739 1358,739 Z"/>
  </g>
  <g id="bullet-char-template-10132" transform="scale(0.00048828125,-0.00048828125)">
   <path d="M 2015,739 L 1276,0 717,0 1260,543 174,543 174,936 1260,936 717,1481 1274,1481 2015,739 Z"/>
  </g>
  <g id="bullet-char-template-10007" transform="scale(0.00048828125,-0.00048828125)">
   <path d="M 0,-2 C -7,14 -16,27 -25,37 L 356,567 C 262,823 215,952 215,954 215,979 228,992 255,992 264,992 276,990 289,987 310,991 331,999 354,1012 L 381,999 492,748 772,1049 836,1024 860,1049 C 881,1039 901,1025 922,1006 886,937 835,863 770,784 769,783 710,716 594,584 L 774,223 C 774,196 753,168 711,139 L 727,119 C 717,90 699,76 672,76 641,76 570,178 457,381 L 164,-76 C 142,-110 111,-127 72,-127 30,-127 9,-110 8,-76 1,-67 -2,-52 -2,-32 -2,-23 -1,-13 0,-2 Z"/>
  </g>
  <g id="bullet-char-template-10004" transform="scale(0.00048828125,-0.00048828125)">
   <path d="M 285,-33 C 182,-33 111,30 74,156 52,228 41,333 41,471 41,549 55,616 82,672 116,743 169,778 240,778 293,778 328,747 346,684 L 369,508 C 377,444 397,411 428,410 L 1163,1116 C 1174,1127 1196,1133 1229,1133 1271,1133 1292,1118 1292,1087 L 1292,965 C 1292,929 1282,901 1262,881 L 442,47 C 390,-6 338,-33 285,-33 Z"/>
  </g>
  <g id="bullet-char-template-9679" transform="scale(0.00048828125,-0.00048828125)">
   <path d="M 813,0 C 632,0 489,54 383,161 276,268 223,411 223,592 223,773 276,916 383,1023 489,1130 632,1184 813,1184 992,1184 1136,1130 1245,1023 1353,916 1407,772 1407,592 1407,412 1353,268 1245,161 1136,54 992,0 813,0 Z"/>
  </g>
  <g id="bullet-char-template-8226" transform="scale(0.00048828125,-0.00048828125)">
   <path d="M 346,457 C 273,457 209,483 155,535 101,586 74,649 74,723 74,796 101,859 155,911 209,963 273,989 346,989 419,989 480,963 531,910 582,859 608,796 608,723 608,648 583,586 532,535 482,483 420,457 346,457 Z"/>
  </g>
  <g id="bullet-char-template-8211" transform="scale(0.00048828125,-0.00048828125)">
   <path d="M -4,459 L 1135,459 1135,606 -4,606 -4,459 Z"/>
  </g>
  <g id="bullet-char-template-61548" transform="scale(0.00048828125,-0.00048828125)">
   <path d="M 173,740 C 173,903 231,1043 346,1159 462,1274 601,1332 765,1332 928,1332 1067,1274 1183,1159 1299,1043 1357,903 1357,740 1357,577 1299,437 1183,322 1067,206 928,148 765,148 601,148 462,206 346,322 231,437 173,577 173,740 Z"/>
  </g>
 </defs>
 <g>
  <g id="id2" class="Master_Slide">
   <g id="bg-id2" class="Background"/>
   <g id="bo-id2" class="BackgroundObjects"/>
  </g>
 </g>
 <g class="SlideGroup">
  <g>
   <g id="container-id1">
    <g id="id1" class="Slide" clip-path="url(#presentation_clip_path)">
     <g class="Page">
      <g class="Group">
       <g class="com.sun.star.drawing.ClosedBezierShape">
        <g id="id3">
         <rect class="BoundingBox" stroke="none" fill="none" x="4892" y="3255" width="962" height="1199"/>
         <path fill="rgb(0,0,0)" stroke="none" d="M 5368,4452 C 5286,4452 5215,4440 5155,4417 5095,4394 5046,4362 5007,4321 4968,4280 4939,4231 4920,4174 4902,4117 4893,4054 4893,3985 L 4893,3256 5157,3256 5157,3963 C 5157,4010 5162,4051 5173,4084 5183,4117 5198,4144 5217,4165 5235,4186 5258,4201 5284,4210 5311,4219 5340,4224 5372,4224 5436,4224 5488,4204 5528,4164 5568,4125 5588,4058 5588,3963 L 5588,3256 5852,3256 5852,3985 C 5852,4054 5843,4117 5824,4174 5804,4232 5775,4281 5736,4323 5696,4364 5646,4396 5585,4418 5524,4441 5452,4452 5368,4452 Z"/>
        </g>
       </g>
       <g class="com.sun.star.drawing.ClosedBezierShape">
        <g id="id4">
         <rect class="BoundingBox" stroke="none" fill="none" x="6107" y="3242" width="928" height="1203"/>
         <path fill="rgb(0,0,0)" stroke="none" d="M 6499,4443 C 6434,4443 6370,4441 6306,4437 6243,4434 6176,4424 6107,4410 L 6107,3272 C 6162,3262 6221,3255 6285,3250 6350,3245 6409,3242 6465,3242 6539,3242 6608,3247 6670,3258 6733,3269 6787,3287 6832,3313 6877,3339 6912,3373 6938,3415 6963,3458 6976,3510 6976,3572 6976,3665 6931,3739 6841,3793 6915,3822 6966,3860 6993,3909 7020,3957 7034,4012 7034,4073 7034,4196 6989,4288 6899,4350 6809,4412 6676,4443 6499,4443 Z M 6365,3917 L 6365,4220 C 6384,4222 6405,4224 6427,4225 6450,4226 6475,4227 6502,4227 6581,4227 6645,4215 6693,4193 6742,4170 6766,4129 6766,4068 6766,4013 6746,3975 6705,3952 6664,3929 6606,3917 6531,3917 L 6365,3917 Z M 6365,3716 L 6493,3716 C 6575,3716 6633,3705 6668,3685 6703,3664 6720,3630 6720,3585 6720,3538 6702,3505 6666,3486 6630,3466 6577,3457 6507,3457 6484,3457 6460,3457 6434,3457 6408,3457 6385,3458 6365,3460 L 6365,3716 Z"/>
        </g>
       </g>
       <g class="com.sun.star.drawing.ClosedBezierShape">
        <g id="id5">
         <rect class="BoundingBox" stroke="none" fill="none" x="7229" y="3255" width="962" height="1199"/>
         <path fill="rgb(0,0,0)" stroke="none" d="M 7705,4452 C 7623,4452 7552,4440 7492,4417 7432,4394 7383,4362 7344,4321 7305,4280 7276,4231 7257,4174 7239,4117 7230,4054 7230,3985 L 7230,3256 7494,3256 7494,3963 C 7494,4010 7499,4051 7510,4084 7520,4117 7535,4144 7554,4165 7572,4186 7595,4201 7621,4210 7648,4219 7677,4224 7709,4224 7773,4224 7825,4204 7865,4164 7905,4125 7925,4058 7925,3963 L 7925,3256 8189,3256 8189,3985 C 8189,4054 8180,4117 8161,4174 8141,4232 8112,4281 8073,4323 8033,4364 7983,4396 7922,4418 7861,4441 7789,4452 7705,4452 Z"/>
        </g>
       </g>
       <g class="com.sun.star.drawing.ClosedBezierShape">
        <g id="id6">
         <rect class="BoundingBox" stroke="none" fill="none" x="8444" y="3255" width="1011" height="1174"/>
         <path fill="rgb(0,0,0)" stroke="none" d="M 9232,4428 C 9156,4294 9074,4161 8986,4030 8898,3899 8804,3776 8705,3660 L 8705,4428 8444,4428 8444,3255 8659,3255 C 8697,3292 8738,3338 8783,3392 8828,3446 8874,3504 8921,3566 8968,3627 9014,3691 9061,3757 9107,3823 9150,3886 9191,3947 L 9191,3255 9453,3255 9453,4428 9232,4428 Z"/>
        </g>
       </g>
       <g class="com.sun.star.drawing.ClosedBezierShape">
        <g id="id7">
         <rect class="BoundingBox" stroke="none" fill="none" x="9620" y="3254" width="974" height="1176"/>
         <path fill="rgb(0,0,0)" stroke="none" d="M 10593,3255 C 10593,3330 10593,3405 10593,3480 10475,3480 10357,3480 10239,3480 10239,3796 10239,4112 10239,4428 10151,4428 10063,4428 9975,4428 9975,4112 9975,3796 9975,3480 9857,3480 9739,3480 9621,3480 9621,3405 9621,3330 9621,3255 9945,3255 10269,3255 10593,3255 Z"/>
        </g>
       </g>
       <g class="com.sun.star.drawing.ClosedBezierShape">
        <g id="id8">
         <rect class="BoundingBox" stroke="none" fill="none" x="10747" y="3255" width="962" height="1199"/>
         <path fill="rgb(0,0,0)" stroke="none" d="M 11223,4452 C 11141,4452 11070,4440 11010,4417 10950,4394 10901,4362 10862,4321 10823,4280 10794,4231 10775,4174 10757,4117 10748,4054 10748,3985 L 10748,3256 11012,3256 11012,3963 C 11012,4010 11017,4051 11028,4084 11038,4117 11053,4144 11072,4165 11090,4186 11113,4201 11139,4210 11166,4219 11195,4224 11227,4224 11291,4224 11343,4204 11383,4164 11423,4125 11443,4058 11443,3963 L 11443,3256 11707,3256 11707,3985 C 11707,4054 11698,4117 11679,4174 11659,4232 11630,4281 11591,4323 11551,4364 11501,4396 11440,4418 11379,4441 11307,4452 11223,4452 Z"/>
        </g>
       </g>
      </g>
      <g class="Group">
       <g class="com.sun.star.drawing.ClosedBezierShape">
        <g id="id9">
         <rect class="BoundingBox" stroke="none" fill="none" x="16384" y="3241" width="1030" height="1203"/>
         <path fill="rgb(0,0,0)" stroke="none" d="M 16649,4213 C 16661,4215 16675,4216 16692,4216 16708,4216 16728,4216 16750,4216 16882,4216 16980,4183 17044,4116 17108,4050 17140,3958 17140,3841 17140,3718 17109,3626 17048,3563 16987,3500 16891,3468 16759,3468 16741,3468 16722,3468 16703,3468 16684,3468 16665,3469 16649,3471 L 16649,4213 Z M 17412,3840 C 17412,3942 17396,4030 17365,4106 17333,4182 17288,4244 17230,4294 17172,4344 17101,4381 17018,4406 16934,4430 16840,4443 16737,4443 16689,4443 16634,4441 16571,4437 16507,4433 16445,4425 16384,4412 L 16384,3270 C 16445,3259 16509,3251 16575,3247 16641,3243 16698,3241 16745,3241 16846,3241 16937,3252 17018,3275 17100,3298 17171,3333 17229,3382 17288,3430 17333,3492 17365,3568 17396,3643 17412,3734 17412,3840 Z"/>
        </g>
       </g>
       <g class="com.sun.star.drawing.ClosedBezierShape">
        <g id="id10">
         <rect class="BoundingBox" stroke="none" fill="none" x="17582" y="3228" width="1170" height="1225"/>
         <path fill="rgb(0,0,0)" stroke="none" d="M 17855,3841 C 17855,3898 17862,3950 17876,3997 17890,4043 17911,4083 17937,4116 17964,4149 17996,4175 18035,4193 18073,4211 18117,4220 18167,4220 18215,4220 18259,4211 18298,4193 18337,4175 18370,4149 18396,4116 18423,4083 18443,4043 18457,3997 18471,3950 18478,3898 18478,3841 18478,3783 18471,3731 18457,3684 18443,3637 18423,3597 18396,3564 18370,3531 18337,3505 18298,3487 18259,3469 18215,3460 18167,3460 18117,3460 18073,3469 18035,3488 17996,3507 17964,3533 17937,3566 17911,3599 17890,3639 17876,3686 17862,3733 17855,3784 17855,3841 Z M 18751,3841 C 18751,3941 18736,4030 18706,4106 18676,4182 18635,4246 18583,4297 18531,4348 18470,4387 18398,4413 18326,4439 18249,4452 18167,4452 18087,4452 18011,4439 17940,4413 17869,4387 17807,4348 17754,4297 17701,4246 17659,4182 17628,4106 17598,4030 17583,3941 17583,3841 17583,3740 17598,3652 17630,3576 17662,3500 17704,3436 17758,3384 17811,3332 17874,3293 17944,3267 18015,3241 18089,3228 18167,3228 18247,3228 18322,3241 18394,3267 18465,3293 18527,3332 18580,3384 18633,3436 18675,3500 18705,3576 18736,3652 18751,3740 18751,3841 Z"/>
        </g>
       </g>
       <g class="com.sun.star.drawing.ClosedBezierShape">
        <g id="id11">
         <rect class="BoundingBox" stroke="none" fill="none" x="18830" y="3254" width="974" height="1176"/>
         <path fill="rgb(0,0,0)" stroke="none" d="M 19803,3255 C 19803,3330 19803,3405 19803,3480 19685,3480 19567,3480 19449,3480 19449,3796 19449,4112 19449,4428 19361,4428 19273,4428 19185,4428 19185,4112 19185,3796 19185,3480 19067,3480 18949,3480 18831,3480 18831,3405 18831,3330 18831,3255 19155,3255 19479,3255 19803,3255 Z"/>
        </g>
       </g>
       <g class="com.sun.star.drawing.ClosedBezierShape">
        <g id="id12">
         <rect class="BoundingBox" stroke="none" fill="none" x="19974" y="3255" width="787" height="1174"/>
         <path fill="rgb(0,0,0)" stroke="none" d="M 19974,4428 C 19974,4037 19974,3646 19974,3255 20236,3255 20498,3255 20760,3255 20760,3329 20760,3403 20760,3477 20586,3477 20412,3477 20239,3477 20239,3559 20239,3640 20239,3722 20393,3722 20548,3722 20702,3722 20702,3796 20702,3870 20702,3944 20548,3944 20393,3944 20239,3944 20239,4105 20239,4267 20239,4428 20151,4428 20062,4428 19974,4428 Z"/>
        </g>
       </g>
       <g class="com.sun.star.drawing.ClosedBezierShape">
        <g id="id13">
         <rect class="BoundingBox" stroke="none" fill="none" x="20948" y="3255" width="266" height="1174"/>
         <path fill="rgb(0,0,0)" stroke="none" d="M 20948,3255 C 21036,3255 21125,3255 21213,3255 21213,3646 21213,4037 21213,4428 21125,4428 21036,4428 20948,4428 20948,4037 20948,3646 20948,3255 Z"/>
        </g>
       </g>
       <g class="com.sun.star.drawing.ClosedBezierShape">
        <g id="id14">
         <rect class="BoundingBox" stroke="none" fill="none" x="21481" y="3255" width="786" height="1174"/>
         <path fill="rgb(0,0,0)" stroke="none" d="M 22265,4201 C 22265,4277 22265,4352 22265,4428 22004,4428 21743,4428 21481,4428 21481,4037 21481,3646 21481,3255 21569,3255 21658,3255 21746,3255 21746,3570 21746,3886 21746,4201 21919,4201 22092,4201 22265,4201 Z"/>
        </g>
       </g>
       <g class="com.sun.star.drawing.ClosedBezierShape">
        <g id="id15">
         <rect class="BoundingBox" stroke="none" fill="none" x="22433" y="3255" width="833" height="1174"/>
         <path fill="rgb(0,0,0)" stroke="none" d="M 22433,4428 C 22433,4037 22433,3646 22433,3255 22698,3255 22962,3255 23226,3255 23226,3329 23226,3403 23226,3477 23050,3477 22874,3477 22698,3477 22698,3553 22698,3630 22698,3707 22854,3707 23010,3707 23167,3707 23167,3779 23167,3851 23167,3924 23010,3924 22854,3924 22698,3924 22698,4018 22698,4112 22698,4206 22887,4206 23076,4206 23265,4206 23265,4280 23265,4354 23265,4428 22988,4428 22711,4428 22433,4428 Z"/>
        </g>
       </g>
       <g class="com.sun.star.drawing.ClosedBezierShape">
        <g id="id16">
         <rect class="BoundingBox" stroke="none" fill="none" x="23385" y="3228" width="857" height="1225"/>
         <path fill="rgb(0,0,0)" stroke="none" d="M 23778,4227 C 23816,4227 23846,4224 23871,4218 23895,4211 23914,4203 23929,4192 23944,4181 23954,4169 23960,4154 23965,4139 23968,4123 23968,4105 23968,4067 23950,4035 23914,4009 23878,3984 23816,3957 23728,3927 23689,3914 23651,3898 23613,3881 23574,3863 23540,3841 23509,3815 23479,3788 23454,3756 23435,3718 23416,3680 23406,3634 23406,3580 23406,3526 23416,3477 23436,3434 23457,3390 23486,3353 23523,3323 23560,3292 23605,3269 23658,3253 23711,3236 23771,3228 23838,3228 23917,3228 23985,3236 24043,3253 24100,3270 24147,3289 24185,3309 L 24109,3517 C 24076,3501 24039,3486 23999,3473 23959,3460 23911,3453 23855,3453 23791,3453 23746,3462 23718,3479 23691,3497 23677,3524 23677,3560 23677,3581 23682,3599 23692,3614 23702,3629 23717,3642 23735,3654 23754,3666 23775,3676 23800,3686 23824,3696 23851,3705 23880,3716 23941,3738 23994,3760 24039,3782 24084,3804 24122,3830 24152,3859 24182,3889 24204,3923 24219,3963 24233,4002 24241,4050 24241,4107 24241,4216 24202,4301 24125,4361 24049,4422 23933,4452 23778,4452 23726,4452 23680,4449 23638,4443 23596,4436 23559,4429 23527,4420 23495,4411 23467,4401 23444,4391 23421,4381 23401,4371 23386,4362 L 23460,4152 C 23495,4172 23538,4189 23590,4204 23641,4219 23704,4227 23778,4227 Z"/>
        </g>
       </g>
      </g>
      <g class="Group">
       <g class="com.sun.star.drawing.ClosedBezierShape">
        <g id="id17">
         <rect class="BoundingBox" stroke="none" fill="none" x="12357" y="2015" width="3459" height="3459"/>
         <path fill="rgb(221,72,20)" stroke="none" d="M 15814,3744 C 15814,4698 15040,5472 14087,5472 13132,5472 12358,4698 12358,3744 12358,2790 13132,2016 14087,2016 15040,2016 15814,2790 15814,3744 Z"/>
        </g>
       </g>
       <g class="com.sun.star.drawing.ClosedBezierShape">
        <g id="id18">
         <rect class="BoundingBox" stroke="none" fill="none" x="12680" y="2495" width="2408" height="2499"/>
         <path fill="rgb(255,255,255)" stroke="none" d="M 12912,3513 C 12784,3513 12681,3617 12681,3744 12681,3871 12784,3974 12912,3974 13039,3974 13142,3871 13142,3744 13142,3617 13039,3513 12912,3513 Z M 14558,4561 C 14448,4625 14410,4766 14474,4876 14537,4987 14679,5025 14789,4961 14899,4897 14937,4756 14873,4646 14810,4535 14669,4498 14558,4561 Z M 13413,3744 C 13413,3516 13526,3315 13699,3193 13643,3098 13587,3004 13531,2910 13329,3045 13179,3251 13116,3493 13189,3552 13236,3643 13236,3744 13236,3845 13189,3935 13116,3995 13179,4236 13329,4442 13531,4577 13587,4483 13643,4389 13699,4295 13526,4173 13413,3971 13413,3744 Z M 14087,3070 C 14438,3070 14727,3340 14757,3684 14867,3682 14977,3681 15086,3680 15070,3425 14959,3197 14788,3029 14700,3063 14599,3057 14512,3007 14424,2956 14369,2871 14354,2778 14268,2755 14179,2742 14087,2742 13927,2742 13777,2779 13643,2845 13696,2941 13749,3037 13803,3133 13889,3093 13985,3070 14087,3070 Z M 14087,4417 C 13985,4417 13889,4395 13803,4355 13749,4451 13696,4547 13643,4642 13777,4708 13927,4746 14087,4746 14179,4746 14268,4733 14354,4709 14369,4616 14424,4531 14512,4480 14599,4430 14700,4425 14788,4458 14959,4290 15070,4062 15086,3808 14977,3807 14867,3805 14757,3803 14727,4147 14438,4417 14087,4417 Z M 14558,2926 C 14669,2990 14810,2952 14873,2842 14937,2731 14899,2590 14789,2526 14679,2463 14537,2501 14474,2611 14410,2721 14448,2862 14558,2926 Z"/>
        </g>
       </g>
      </g>
     </g>
    </g>
   </g>
  </g>
 </g>
</svg>